<?xml version="1.0" standalone="no"?>
<!DOCTYPE svg PUBLIC "-//W3C//DTD SVG 20010904//EN"
 "http://www.w3.org/TR/2001/REC-SVG-20010904/DTD/svg10.dtd">
<svg version="1.0" xmlns="http://www.w3.org/2000/svg"
 width="32.000000pt" height="32.000000pt" viewBox="0 0 32.000000 32.000000"
 preserveAspectRatio="xMidYMid meet">

<g transform="translate(0.000000,32.000000) scale(0.100000,-0.100000)"
fill="#000000" stroke="none">
<path d="M102 308 c-27 -6 -48 -18 -58 -34 -9 -13 -23 -24 -30 -24 -11 0 -14
-20 -14 -90 0 -70 3 -90 14 -90 7 0 21 -11 29 -24 35 -52 190 -53 232 -1 12
14 26 25 33 25 8 0 12 26 12 90 0 70 -3 90 -14 90 -7 0 -21 11 -30 24 -21 34
-105 50 -174 34z m41 -15 c-7 -2 -19 -2 -25 0 -7 3 -2 5 12 5 14 0 19 -2 13
-5z m60 0 c-7 -2 -19 -2 -25 0 -7 3 -2 5 12 5 14 0 19 -2 13 -5z m-133 -93 c0
-15 7 -20 25 -20 18 0 25 5 25 20 0 24 15 27 24 4 8 -20 8 -68 0 -88 -9 -25
-24 -19 -24 9 0 20 -5 25 -25 25 -20 0 -25 -5 -25 -25 0 -16 -6 -25 -15 -25
-12 0 -15 13 -15 60 0 47 3 60 15 60 8 0 15 -9 15 -20z m195 10 c11 -17 -5
-32 -20 -20 -24 20 -55 2 -55 -31 0 -25 4 -29 28 -28 15 0 21 3 15 6 -26 10
-13 33 18 33 28 0 31 -3 25 -22 -3 -13 -6 -29 -6 -35 0 -19 -75 -16 -94 3 -21
20 -20 63 1 86 17 19 78 25 88 8z m-122 -187 c-7 -2 -19 -2 -25 0 -7 3 -2 5
12 5 14 0 19 -2 13 -5z m60 0 c-7 -2 -19 -2 -25 0 -7 3 -2 5 12 5 14 0 19 -2
13 -5z"/>
</g>
</svg>
